<svg xmlns="http://www.w3.org/2000/svg" viewBox="0 0 1186 1802" width="1186" height="1802"><defs><style type="text/css">@import url('https://fonts.googleapis.com/css?family=Roboto+Mono:400|Roboto:400,&amp;subset=cyrillic,cyrillic-ext,greek,greek-ext,latin-ext')</style></defs><g transform="translate(5,5)"><g><g><g transform="translate(616, 704)"><path d="M82.5 76.5 L138 27 A3.174757281553398 3.174757281553398 0 0 1 142 27 L197.5 76.5 L253 126 A2.8434782608695652 2.8434782608695652 0 0 1 253 130 L197.5 179.5 L142 229 A3.174757281553398 3.174757281553398 0 0 1 138 229 L82.5 179.5 L27 130 A2.8434782608695652 2.8434782608695652 0 0 1 27 126 Z" fill="#ffffff" stroke="#CC92F1" stroke-width="2"/><g transform="translate(78.5, 78)"><text font-size="14" font-family="Roboto,sans-serif" x="42.1015625" y="35" text-anchor="start" fill="#52565f">Escolher o</text><text font-size="14" font-family="Roboto,sans-serif" x="42.1015625" y="55" text-anchor="start" fill="#52565f">método de</text><text font-size="14" font-family="Roboto,sans-serif" x="42.1015625" y="75" text-anchor="start" fill="#52565f">pagamento</text></g><g transform="translate(88.6015625, 116)"><svg width="24" height="24" fill="none" viewBox="0 0 24 24" id="svgSkb7tcer737h" xmlns="http://www.w3.org/2000/svg">
        <path d="M9.002 4c.5 0 1.001.5 1.001 1l-1 8h7.057l.446-.979h-4.488C11.504 12 11 11.56 11.004 11c.003-.559.5-1.01 1.014-1.01l5.489.01.5-1h-5.003c-.5 0-1-.5-1-1s.5-1 1-1h6.004c.665.028 1.109.632.965 1.263L18.007 14c-.5 1-1 1-1.5 1H8.751l-.25 1.5 7.01.488a1.507 1.507 0 1 1-1.43 1.982l-5.08-.47c-.246.826-1.095 1.5-2 1.5A2.001 2.001 0 0 1 5 18c0-.971.582-1.82 1.501-2 0 0 1.003-6.658 1.501-10h-1c-.207.582-.848 1-1.501 1a1.501 1.501 0 0 1 0-3h3.501z" fill="#58A8F7"/>
    <desc>Created with Snap</desc><defs/></svg></g></g><g transform="translate(616, 1376)"><path d="M31.5 28 L140 28 L248.5 28 C250.5 28 252 29.5 252 31.5 L252 112 L252 192.5 C252 194.5 250.5 196 248.5 196 L140 196 L31.5 196 C29.5 196 28 194.5 28 192.5 L28 112 L28 31.5 C28 29.5 29.5 28 31.5 28 Z" fill="#ffffff" stroke="#76E27A" stroke-width="2"/><g transform="translate(36, 32)"><text font-size="14" font-family="Roboto,sans-serif" x="53.984375" y="85" text-anchor="start" fill="#52565f">Pagamento realizado</text></g><g transform="translate(57.984375, 100)"><svg width="24" height="24" fill="none" viewBox="0 0 24 24" id="svgSkb7tcer737l" xmlns="http://www.w3.org/2000/svg">
        <g>
            <path d="M12 21a9 9 0 1 0 0-18 9 9 0 0 0 0 18z" fill="#55D45B"/>
            <path fill-rule="evenodd" clip-rule="evenodd" d="M17.707 9.707L11.5 15.914l-4.207-4.207 1.414-1.414 2.793 2.793 4.793-4.793 1.414 1.414z" fill="#fff"/>
        </g>
    <desc>Created with Snap</desc><defs/></svg></g></g><g transform="translate(896, 928)"><path d="M31.5 28 L140 28 L248.5 28 C250.5 28 252 29.5 252 31.5 L252 96 L252 160.5 C252 162.5 250.5 164 248.5 164 L140 164 L31.5 164 C29.5 164 28 162.5 28 160.5 L28 96 L28 31.5 C28 29.5 29.5 28 31.5 28 Z" fill="#ffffff" stroke="#FF7C43" stroke-width="2"/><g transform="translate(36, 36)"><text font-size="14" font-family="Roboto,sans-serif" x="43.5625" y="55" text-anchor="start" fill="#52565f">Esperando realização do</text><text font-size="14" font-family="Roboto,sans-serif" x="43.5625" y="75" text-anchor="start" fill="#52565f">pagamento (até 3 dias)</text></g><g transform="translate(47.5625, 84)"><svg width="24" height="24" fill="none" viewBox="0 0 24 24" id="svgSkb7tcer737r" xmlns="http://www.w3.org/2000/svg">
        <path d="M7.5 9L9 7.5 7.5 6 4 10l3.5 4L9 12.5 7.5 11h8c1.379 0 2.5 1.122 2.5 2.5S16.879 16 15.5 16H10v2h5.5c2.481 0 4.5-2.019 4.5-4.5S17.981 9 15.5 9h-8z" fill="#58A8F7"/>
    <desc>Created with Snap</desc><defs/></svg></g></g><g transform="translate(616, 1600)"><path d="M31.5 28 L140 28 L248.5 28 C250.5 28 252 29.5 252 31.5 L252 96 L252 160.5 C252 162.5 250.5 164 248.5 164 L140 164 L31.5 164 C29.5 164 28 162.5 28 160.5 L28 96 L28 31.5 C28 29.5 29.5 28 31.5 28 Z" fill="#ffffff" stroke="#4d9ef6" stroke-width="2"/><g transform="translate(36, 36)"><text font-size="14" font-family="Roboto,sans-serif" x="52.375" y="65" text-anchor="start" fill="#52565f">Email de confirmação</text></g><g transform="translate(56.375, 84)"><svg width="24" height="24" fill="none" viewBox="0 0 24 24" id="svgSkb7tcer737v" xmlns="http://www.w3.org/2000/svg">
        <path d="M20 8l-8 4.003L4 8v-.003C4 6.894 4.894 6 6.003 6h11.994C19.103 6 20 6.896 20 7.997V8zm0 2v6.003A1.998 1.998 0 0 1 17.997 18H6.003A2.001 2.001 0 0 1 4 16.003V10l8 4.003L20 10z" fill="#58A8F7"/>
    <desc>Created with Snap</desc><defs/></svg></g></g><g transform="translate(336, 480)"><path d="M82.5 60.5 L138 27 A3.929577464788732 3.929577464788732 0 0 1 142 27 L197.5 60.5 L253 94 A2.4260869565217393 2.4260869565217393 0 0 1 253 98 L197.5 131.5 L142 165 A3.929577464788732 3.929577464788732 0 0 1 138 165 L82.5 131.5 L27 98 A2.4260869565217393 2.4260869565217393 0 0 1 27 94 Z" fill="#ffffff" stroke="#CC92F1" stroke-width="2"/><g transform="translate(78.5, 66)"><text font-size="14" font-family="Roboto,sans-serif" x="61.5" y="25" text-anchor="middle" fill="#52565f">O pacote que deseja</text><text font-size="14" font-family="Roboto,sans-serif" x="61.5" y="45" text-anchor="middle" fill="#52565f">está disponível?</text></g></g><g transform="translate(0, 672)"><path d="M31.5 28 L140 28 L248.5 28 C250.5 28 252 29.5 252 31.5 L252 96 L252 160.5 C252 162.5 250.5 164 248.5 164 L140 164 L31.5 164 C29.5 164 28 162.5 28 160.5 L28 96 L28 31.5 C28 29.5 29.5 28 31.5 28 Z" fill="#ffffff" stroke="#FFD663" stroke-width="2"/><g transform="translate(36, 36)"><text font-size="14" font-family="Roboto,sans-serif" x="58.40625" y="65" text-anchor="start" fill="#52565f">Escolher Passagem</text></g><g transform="translate(62.40625, 84)"><svg width="24" height="24" fill="none" viewBox="0 0 24 24" id="svgSkb7tcer7384" xmlns="http://www.w3.org/2000/svg">
        <path d="M7 11l10.5-3.5L9 12v7l3.5-3.5L11 13l7 4 4-12L2 8l5 3z" fill="#58A8F7"/>
    <desc>Created with Snap</desc><defs/></svg></g></g><g transform="translate(0, 864)"><path d="M31.5 28 L140 28 L248.5 28 C250.5 28 252 29.5 252 31.5 L252 96 L252 160.5 C252 162.5 250.5 164 248.5 164 L140 164 L31.5 164 C29.5 164 28 162.5 28 160.5 L28 96 L28 31.5 C28 29.5 29.5 28 31.5 28 Z" fill="#ffffff" stroke="#FFD663" stroke-width="2"/><g transform="translate(36, 36)"><text font-size="14" font-family="Roboto,sans-serif" x="49.6328125" y="65" text-anchor="start" fill="#52565f">Escolher Hospedagem</text></g><g transform="translate(53.6328125, 84)"><svg width="24" height="24" fill="none" viewBox="0 0 24 24" id="svgSkb7tcer7388" xmlns="http://www.w3.org/2000/svg">
        <path fill-rule="evenodd" clip-rule="evenodd" d="M12.618 18.779c.626-1.174 1.245-3.052 1.371-5.764h-3.978c.126 2.712.745 4.59 1.371 5.764.218.407.431.721.618.953.187-.232.4-.546.618-.953zM21 13.015h-4.997c-.17 4.044-1.348 6.632-2.431 7.985 3.928-.694 6.985-3.942 7.428-7.985zm0-2.03h-4.997C15.833 6.94 14.655 4.353 13.572 3c3.928.694 6.985 3.942 7.428 7.985zM10.428 3C6.5 3.694 3.443 6.942 3 10.985h4.997C8.167 6.94 9.345 4.353 10.428 3zM3 13.015h4.997c.17 4.044 1.348 6.631 2.431 7.985C6.5 20.306 3.443 17.058 3 13.015zm8.382-7.794c-.626 1.174-1.245 3.052-1.371 5.764h3.978c-.126-2.712-.745-4.59-1.371-5.764A6.124 6.124 0 0 0 12 4.268c-.187.232-.4.545-.618.953z" fill="#58A8F7"/>
    <desc>Created with Snap</desc><defs/></svg></g></g><g transform="translate(616, 992)"><path d="M31.5 28 L140 28 L248.5 28 C250.5 28 252 29.5 252 31.5 L252 96 L252 160.5 C252 162.5 250.5 164 248.5 164 L140 164 L31.5 164 C29.5 164 28 162.5 28 160.5 L28 96 L28 31.5 C28 29.5 29.5 28 31.5 28 Z" fill="#ffffff" stroke="#FD6764" stroke-width="2"/><g transform="translate(36, 36)"><text font-size="14" font-family="Roboto,sans-serif" x="60.828125" y="65" text-anchor="start" fill="#52565f">Cancelar Operação</text></g><g transform="translate(64.828125, 84)"><svg width="24" height="24" fill="none" viewBox="0 0 24 24" id="svgSkb7tcer738c" xmlns="http://www.w3.org/2000/svg">
        <g>
            <path d="M12 21a9 9 0 1 0 0-18 9 9 0 0 0 0 18z" fill="#FD6764"/>
            <path d="M12 10.546L9.455 8 8 9.455 10.546 12 8 14.546 9.455 16 12 13.454 14.546 16 16 14.546 13.454 12 16 9.455 14.546 8 12 10.546z" fill="#fff"/>
        </g>
    <desc>Created with Snap</desc><defs/></svg></g></g><g transform="translate(616, 1184)"><path d="M31.5 28 L140 28 L248.5 28 C250.5 28 252 29.5 252 31.5 L252 96 L252 160.5 C252 162.5 250.5 164 248.5 164 L140 164 L31.5 164 C29.5 164 28 162.5 28 160.5 L28 96 L28 31.5 C28 29.5 29.5 28 31.5 28 Z" fill="#ffffff" stroke="#4d9ef6" stroke-width="2"/><g transform="translate(36, 36)"><text font-size="14" font-family="Roboto,sans-serif" x="26.78125" y="65" text-anchor="start" fill="#52565f">Redirecionar para a tela inicial</text></g><g transform="translate(30.78125, 84)"><svg width="24" height="24" fill="none" viewBox="0 0 24 24" id="svgSkb7tcer738i" xmlns="http://www.w3.org/2000/svg">
        <path d="M7.5 9L9 7.5 7.5 6 4 10l3.5 4L9 12.5 7.5 11h8c1.379 0 2.5 1.122 2.5 2.5S16.879 16 15.5 16H10v2h5.5c2.481 0 4.5-2.019 4.5-4.5S17.981 9 15.5 9h-8z" fill="#58A8F7"/>
    <desc>Created with Snap</desc><defs/></svg></g></g><g transform="translate(336, 1600)"><path d="M31.5 28 L140 28 L248.5 28 C250.5 28 252 29.5 252 31.5 L252 96 L252 160.5 C252 162.5 250.5 164 248.5 164 L140 164 L31.5 164 C29.5 164 28 162.5 28 160.5 L28 96 L28 31.5 C28 29.5 29.5 28 31.5 28 Z" fill="#ffffff" stroke="#4d9ef6" stroke-width="2"/><g transform="translate(36, 36)"><text font-size="14" font-family="Roboto,sans-serif" x="36.9609375" y="55" text-anchor="start" fill="#52565f">Redirecionar para a tela de</text><text font-size="14" font-family="Roboto,sans-serif" x="36.9609375" y="75" text-anchor="start" fill="#52565f">informações da compra</text></g><g transform="translate(40.9609375, 84)"><svg width="24" height="24" fill="none" viewBox="0 0 24 24" id="svgSkb7tcer738m" xmlns="http://www.w3.org/2000/svg">
        <path d="M7.5 9L9 7.5 7.5 6 4 10l3.5 4L9 12.5 7.5 11h8c1.379 0 2.5 1.122 2.5 2.5S16.879 16 15.5 16H10v2h5.5c2.481 0 4.5-2.019 4.5-4.5S17.981 9 15.5 9h-8z" fill="#58A8F7"/>
    <desc>Created with Snap</desc><defs/></svg></g></g><g transform="translate(336, 928)"><path d="M82.5 60.5 L138 27 A3.929577464788732 3.929577464788732 0 0 1 142 27 L197.5 60.5 L253 94 A2.4260869565217393 2.4260869565217393 0 0 1 253 98 L197.5 131.5 L142 165 A3.929577464788732 3.929577464788732 0 0 1 138 165 L82.5 131.5 L27 98 A2.4260869565217393 2.4260869565217393 0 0 1 27 94 Z" fill="#ffffff" stroke="#CC92F1" stroke-width="2"/><g transform="translate(78.5, 66)"><text font-size="14" font-family="Roboto,sans-serif" x="61.5" y="25" text-anchor="middle" fill="#52565f">Compra bem</text><text font-size="14" font-family="Roboto,sans-serif" x="61.5" y="45" text-anchor="middle" fill="#52565f">sucedida?</text></g></g><g transform="translate(896, 1120)"><path d="M82.5 60.5 L138 27 A3.929577464788732 3.929577464788732 0 0 1 142 27 L197.5 60.5 L253 94 A2.4260869565217393 2.4260869565217393 0 0 1 253 98 L197.5 131.5 L142 165 A3.929577464788732 3.929577464788732 0 0 1 138 165 L82.5 131.5 L27 98 A2.4260869565217393 2.4260869565217393 0 0 1 27 94 Z" fill="#ffffff" stroke="#CC92F1" stroke-width="2"/><g transform="translate(78.5, 66)"><text font-size="14" font-family="Roboto,sans-serif" x="61.5" y="25" text-anchor="middle" fill="#52565f">Pagamento bem</text><text font-size="14" font-family="Roboto,sans-serif" x="61.5" y="45" text-anchor="middle" fill="#52565f">sucedido?</text></g></g><g transform="translate(896, 1600)"><path d="M31.5 28 L140 28 L248.5 28 C250.5 28 252 29.5 252 31.5 L252 96 L252 160.5 C252 162.5 250.5 164 248.5 164 L140 164 L31.5 164 C29.5 164 28 162.5 28 160.5 L28 96 L28 31.5 C28 29.5 29.5 28 31.5 28 Z" fill="#ffffff" stroke="#FD6764" stroke-width="2"/><g transform="translate(36, 36)"><text font-size="14" font-family="Roboto,sans-serif" x="104" y="55" text-anchor="middle" fill="#52565f">Email de compra cancelada e o</text><text font-size="14" font-family="Roboto,sans-serif" x="104" y="75" text-anchor="middle" fill="#52565f">motivo</text></g></g><g transform="translate(336, 0)"><path d="M31.5 28 L140 28 L248.5 28 C250.5 28 252 29.5 252 31.5 L252 80 L252 128.5 C252 130.5 250.5 132 248.5 132 L140 132 L31.5 132 C29.5 132 28 130.5 28 128.5 L28 80 L28 31.5 C28 29.5 29.5 28 31.5 28 Z" fill="#FFFFFF" stroke="#4d9ef6" stroke-width="2"/><g transform="translate(36, 40)"><text font-size="14" font-family="Roboto,sans-serif" x="78.546875" y="45" text-anchor="start" fill="#52565F">Entrar no site</text></g><g transform="translate(82.546875, 68)"><svg width="24" height="24" fill="none" viewBox="0 0 24 24" id="svgSkb7tcer736r" xmlns="http://www.w3.org/2000/svg">
        <path d="M15 21v-6c0-1.704-1.343-3-3-3s-3 1.296-3 3v6H3V10.672c0-.636.285-1.237.772-1.627l7-5.61a1.953 1.953 0 0 1 2.456 0l7 5.61c.487.39.772.99.772 1.627V21h-6z" fill="#58A8F7"/>
    <desc>Created with Snap</desc><defs/></svg></g></g><g transform="translate(336, 160)"><path d="M31.5 28 L140 28 L248.5 28 C250.5 28 252 29.5 252 31.5 L252 80 L252 128.5 C252 130.5 250.5 132 248.5 132 L140 132 L31.5 132 C29.5 132 28 130.5 28 128.5 L28 80 L28 31.5 C28 29.5 29.5 28 31.5 28 Z" fill="#ffffff" stroke="#58A8F7" stroke-width="2"/><g transform="translate(36, 40)"><text font-size="14" font-family="Roboto,sans-serif" x="78.21875" y="45" text-anchor="start" fill="#52565f">Realizar login</text></g><g transform="translate(82.21875, 68)"><svg width="24" height="24" fill="none" viewBox="0 0 24 24" id="svgSkb7tcer736v" xmlns="http://www.w3.org/2000/svg">
        <path d="M12 8.495l3.5 3.5-5 5L6 18l1-4.505 5-5zm1-1l1-1c.7-.66 1.3-.66 2 0l1.5 1.5c.67.705.67 1.305 0 2l-1 1-3.5-3.5z" fill="#58A8F7"/>
    <desc>Created with Snap</desc><defs/></svg></g></g><g transform="translate(336, 320)"><path d="M31.5 28 L140 28 L248.5 28 C250.5 28 252 29.5 252 31.5 L252 80 L252 128.5 C252 130.5 250.5 132 248.5 132 L140 132 L31.5 132 C29.5 132 28 130.5 28 128.5 L28 80 L28 31.5 C28 29.5 29.5 28 31.5 28 Z" fill="#ffffff" stroke="#4d9ef6" stroke-width="2"/><g transform="translate(36, 40)"><text font-size="14" font-family="Roboto,sans-serif" x="42.6640625" y="45" text-anchor="start" fill="#52565f">Entrar na aba de pacotes</text></g><g transform="translate(46.6640625, 68)"><svg width="24" height="24" fill="none" viewBox="0 0 24 24" id="svgSkb7tcer736z" xmlns="http://www.w3.org/2000/svg">
        <path d="M7.5 7c.818 0 1.544.393 2 1 .202-.27.457-.496.75-.665a3.5 3.5 0 1 0-3.058 5.652l-.726-1.21A2.5 2.5 0 0 1 7.5 7z" fill="#58A8F7"/>
        <path d="M16.972 7.433l2.918 3.208a4.26 4.26 0 0 1 1.11 2.87c0 1.14-.443 2.212-1.249 3.017l-1.22 1.221A4.24 4.24 0 0 1 15.51 19H8.195a1.166 1.166 0 0 1-1.165-1.165c0-.856.64-1.592 1.486-1.713l3.134-.493-5.215-5.032a1.485 1.485 0 1 1 2.101-2.102L9.84 9.617a1.487 1.487 0 0 1 2.325-.762 1.486 1.486 0 0 1 2.33-.776 1.485 1.485 0 0 1 2.477-.647z" fill="#58A8F7"/>
    <desc>Created with Snap</desc><defs/></svg></g></g><g transform="translate(672, 512)"><path d="M31.5 28 L140 28 L248.5 28 C250.5 28 252 29.5 252 31.5 L252 80 L252 128.5 C252 130.5 250.5 132 248.5 132 L140 132 L31.5 132 C29.5 132 28 130.5 28 128.5 L28 80 L28 31.5 C28 29.5 29.5 28 31.5 28 Z" fill="#ffffff" stroke="#76E27A" stroke-width="2"/><g transform="translate(36, 40)"><text font-size="14" font-family="Roboto,sans-serif" x="58.1953125" y="45" text-anchor="start" fill="#52565f">Selecionar o pacote</text></g><g transform="translate(62.1953125, 68)"><svg width="24" height="24" fill="none" viewBox="0 0 24 24" id="svgSkb7tcer7374" xmlns="http://www.w3.org/2000/svg">
        <path d="M9.989 6.077c1.01 0 1.011.926 1.011.926h2s-.005-.926.989-.926S15 7.003 15 7.003h2c0-1.248-.458-2.53-2.011-2.918-1.838-.46-2.779 1.077-2.959 1.372l-.03.047a.52.52 0 0 1-.03-.046c-.181-.291-1.14-1.833-2.981-1.373C7.453 4.47 7.004 5.766 7 7.003c.5 0 1.99-.03 1.99-.03l-.002-.015s-.01-.88 1.001-.88zM6 8.003c-1.105 0-2-.104-2 1v1h16v-1c0-1.104-.895-1-2-1h-4V9h-4v-.997H6z" fill="#58A8F7"/>
        <path fill-rule="evenodd" clip-rule="evenodd" d="M5 12.002V17a2 2 0 0 0 2 2h10a2 2 0 0 0 2-2v-4.998H5zm2 1.995v2a1 1 0 0 0 1 1h2v-3H7zm7 3v-3h3v2a1 1 0 0 1-1 1h-2z" fill="#58A8F7"/>
    <desc>Created with Snap</desc><defs/></svg></g></g><g transform="translate(336, 768)"><path d="M31.5 28 L140 28 L248.5 28 C250.5 28 252 29.5 252 31.5 L252 80 L252 128.5 C252 130.5 250.5 132 248.5 132 L140 132 L31.5 132 C29.5 132 28 130.5 28 128.5 L28 80 L28 31.5 C28 29.5 29.5 28 31.5 28 Z" fill="#ffffff" stroke="#FFD663" stroke-width="2"/><g transform="translate(36, 40)"><text font-size="14" font-family="Roboto,sans-serif" x="27.9609375" y="45" text-anchor="start" fill="#52565f">Inserir informações do cartão</text></g><g transform="translate(31.9609375, 68)"><svg width="24" height="24" fill="none" viewBox="0 0 24 24" id="svgSkb7tcer7379" xmlns="http://www.w3.org/2000/svg">
        <path d="M20 9H4V7.6C4 6.715 4.723 6 5.605 6h12.79C19.28 6 20 6.722 20 7.6V9zm0 2v5.4c0 .884-.724 1.6-1.605 1.6H5.605A1.606 1.606 0 0 1 4 16.4V11h16zM6 15v1h4v-1H6zm6 0v1h2v-1h-2z" fill="#58A8F7"/>
    <desc>Created with Snap</desc><defs/></svg></g></g><g transform="translate(896, 768)"><path d="M31.5 28 L140 28 L248.5 28 C250.5 28 252 29.5 252 31.5 L252 80 L252 128.5 C252 130.5 250.5 132 248.5 132 L140 132 L31.5 132 C29.5 132 28 130.5 28 128.5 L28 80 L28 31.5 C28 29.5 29.5 28 31.5 28 Z" fill="#ffffff" stroke="#FFD663" stroke-width="2"/><g transform="translate(36, 40)"><text font-size="14" font-family="Roboto,sans-serif" x="57.890625" y="45" text-anchor="start" fill="#52565F">Download do boleto</text></g><g transform="translate(61.890625, 68)"><svg width="24" height="24" fill="none" viewBox="0 0 24 24" id="svgSkb7tcer737d" xmlns="http://www.w3.org/2000/svg">
        <path d="M20 4v13.5c0 1.37-1.13 2.5-2.5 2.5h-11C5.13 20 4 18.87 4 17.5V9h4V4h12zM8 11H6v6.01c0 .546.444.99 1 .99a1 1 0 0 0 1-.99V11zm2 7h6v-2h-6v2zm0-4h8v-2h-8v2zm0-4h3V6h-3v4zm5 0h3V8h-3v2z" fill="#58A8F7"/>
    <desc>Created with Snap</desc><defs/></svg></g></g><g transform="translate(0, 512)"><path d="M31.5 28 L140 28 L248.5 28 C250.5 28 252 29.5 252 31.5 L252 80 L252 128.5 C252 130.5 250.5 132 248.5 132 L140 132 L31.5 132 C29.5 132 28 130.5 28 128.5 L28 80 L28 31.5 C28 29.5 29.5 28 31.5 28 Z" fill="#ffffff" stroke="#FD6764" stroke-width="2"/><g transform="translate(36, 40)"><text font-size="14" font-family="Roboto,sans-serif" x="57.9921875" y="45" text-anchor="start" fill="#52565f">Monte o seu pacote</text></g><g transform="translate(61.9921875, 68)"><svg width="24" height="24" fill="none" viewBox="0 0 24 24" id="svgSkb7tcer737z" xmlns="http://www.w3.org/2000/svg">
        <path d="M9.989 6.077c1.01 0 1.011.926 1.011.926h2s-.005-.926.989-.926S15 7.003 15 7.003h2c0-1.248-.458-2.53-2.011-2.918-1.838-.46-2.779 1.077-2.959 1.372l-.03.047a.52.52 0 0 1-.03-.046c-.181-.291-1.14-1.833-2.981-1.373C7.453 4.47 7.004 5.766 7 7.003c.5 0 1.99-.03 1.99-.03l-.002-.015s-.01-.88 1.001-.88zM6 8.003c-1.105 0-2-.104-2 1v1h16v-1c0-1.104-.895-1-2-1h-4V9h-4v-.997H6z" fill="#58A8F7"/>
        <path fill-rule="evenodd" clip-rule="evenodd" d="M5 12.002V17a2 2 0 0 0 2 2h10a2 2 0 0 0 2-2v-4.998H5zm2 1.995v2a1 1 0 0 0 1 1h2v-3H7zm7 3v-3h3v2a1 1 0 0 1-1 1h-2z" fill="#58A8F7"/>
    <desc>Created with Snap</desc><defs/></svg></g></g></g><g><g><path fill="none" stroke="#4d9ef6" stroke-width="2" stroke-dasharray="0px 0px" d="M 476,133L 476,160L 476,160L 476,185"/><path transform="translate( 479, 135 ) rotate( 180 )" d="M3 6C4.65685 6 6 4.65685 6 3C6 1.34315 4.65685 0 3 0C1.34315 0 0 1.34315 0 3C0 4.65685 1.34315 6 3 6Z" fill="#4d9ef6"/><path transform="translate( 483, 187 ) rotate( 540 )" d="M6.34003 0.275664C6.70452 -0.0918881 7.29548 -0.0918881 7.65997 0.275664L13.7266 6.39331C14.0911 6.76086 14.0911 7.35678 13.7266 7.72434C13.3621 8.09189 12.7712 8.09189 12.4067 7.72434L7 2.2722L1.5933 7.72434C1.22881 8.09189 0.637856 8.09189 0.273367 7.72434C-0.0911224 7.35678 -0.0911224 6.76086 0.273367 6.39331L6.34003 0.275664Z" fill="#4d9ef6"/></g><g><path fill="none" stroke="#4d9ef6" stroke-width="2" stroke-dasharray="0px 0px" d="M 476,293L 476,320L 476,320L 476,345"/><path transform="translate( 479, 295 ) rotate( 180 )" d="M3 6C4.65685 6 6 4.65685 6 3C6 1.34315 4.65685 0 3 0C1.34315 0 0 1.34315 0 3C0 4.65685 1.34315 6 3 6Z" fill="#4d9ef6"/><path transform="translate( 483, 347 ) rotate( 540 )" d="M6.34003 0.275664C6.70452 -0.0918881 7.29548 -0.0918881 7.65997 0.275664L13.7266 6.39331C14.0911 6.76086 14.0911 7.35678 13.7266 7.72434C13.3621 8.09189 12.7712 8.09189 12.4067 7.72434L7 2.2722L1.5933 7.72434C1.22881 8.09189 0.637856 8.09189 0.273367 7.72434C-0.0911224 7.35678 -0.0911224 6.76086 0.273367 6.39331L6.34003 0.275664Z" fill="#4d9ef6"/></g><g><path fill="none" stroke="#4d9ef6" stroke-width="2" stroke-dasharray="0px 0px" d="M 476,453L 476,480L 476,480L 476,503.5"/><path transform="translate( 479, 455 ) rotate( 180 )" d="M3 6C4.65685 6 6 4.65685 6 3C6 1.34315 4.65685 0 3 0C1.34315 0 0 1.34315 0 3C0 4.65685 1.34315 6 3 6Z" fill="#4d9ef6"/><path transform="translate( 483, 505.5 ) rotate( 540 )" d="M6.34003 0.275664C6.70452 -0.0918881 7.29548 -0.0918881 7.65997 0.275664L13.7266 6.39331C14.0911 6.76086 14.0911 7.35678 13.7266 7.72434C13.3621 8.09189 12.7712 8.09189 12.4067 7.72434L7 2.2722L1.5933 7.72434C1.22881 8.09189 0.637856 8.09189 0.273367 7.72434C-0.0911224 7.35678 -0.0911224 6.76086 0.273367 6.39331L6.34003 0.275664Z" fill="#4d9ef6"/></g><g><path fill="none" stroke="#4d9ef6" stroke-width="2" stroke-dasharray="0px 0px" d="M 812,645L 812,672L 812,694Q812,704 802,704L 766,704Q756,704 756,714L 756,727.5"/><path transform="translate( 815, 647 ) rotate( 180 )" d="M3 6C4.65685 6 6 4.65685 6 3C6 1.34315 4.65685 0 3 0C1.34315 0 0 1.34315 0 3C0 4.65685 1.34315 6 3 6Z" fill="#4d9ef6"/><path transform="translate( 763, 729.5 ) rotate( 540 )" d="M6.34003 0.275664C6.70452 -0.0918881 7.29548 -0.0918881 7.65997 0.275664L13.7266 6.39331C14.0911 6.76086 14.0911 7.35678 13.7266 7.72434C13.3621 8.09189 12.7712 8.09189 12.4067 7.72434L7 2.2722L1.5933 7.72434C1.22881 8.09189 0.637856 8.09189 0.273367 7.72434C-0.0911224 7.35678 -0.0911224 6.76086 0.273367 6.39331L6.34003 0.275664Z" fill="#4d9ef6"/></g><g><path fill="none" stroke="#4d9ef6" stroke-width="2" stroke-dasharray="0px 0px" d="M 476,901L 476,928L 476,928L 476,951.5"/><path transform="translate( 479, 903 ) rotate( 180 )" d="M3 6C4.65685 6 6 4.65685 6 3C6 1.34315 4.65685 0 3 0C1.34315 0 0 1.34315 0 3C0 4.65685 1.34315 6 3 6Z" fill="#4d9ef6"/><path transform="translate( 483, 953.5 ) rotate( 540 )" d="M6.34003 0.275664C6.70452 -0.0918881 7.29548 -0.0918881 7.65997 0.275664L13.7266 6.39331C14.0911 6.76086 14.0911 7.35678 13.7266 7.72434C13.3621 8.09189 12.7712 8.09189 12.4067 7.72434L7 2.2722L1.5933 7.72434C1.22881 8.09189 0.637856 8.09189 0.273367 7.72434C-0.0911224 7.35678 -0.0911224 6.76086 0.273367 6.39331L6.34003 0.275664Z" fill="#4d9ef6"/></g><g><path fill="none" stroke="#4d9ef6" stroke-width="2" stroke-dasharray="0px 0px" d="M 1036,901L 1036,928L 1036,928L 1036,953"/><path transform="translate( 1039, 903 ) rotate( 180 )" d="M3 6C4.65685 6 6 4.65685 6 3C6 1.34315 4.65685 0 3 0C1.34315 0 0 1.34315 0 3C0 4.65685 1.34315 6 3 6Z" fill="#4d9ef6"/><path transform="translate( 1043, 955 ) rotate( 540 )" d="M6.34003 0.275664C6.70452 -0.0918881 7.29548 -0.0918881 7.65997 0.275664L13.7266 6.39331C14.0911 6.76086 14.0911 7.35678 13.7266 7.72434C13.3621 8.09189 12.7712 8.09189 12.4067 7.72434L7 2.2722L1.5933 7.72434C1.22881 8.09189 0.637856 8.09189 0.273367 7.72434C-0.0911224 7.35678 -0.0911224 6.76086 0.273367 6.39331L6.34003 0.275664Z" fill="#4d9ef6"/></g><g><path fill="none" stroke="#CC92F1" stroke-width="2" stroke-dasharray="0px 0px" d="M 641,832L 626,832Q616,832 616,842L 616,838Q616,848 606,848L 591,848"/><path transform="translate( 639, 835 ) rotate( 270 )" d="M3 6C4.65685 6 6 4.65685 6 3C6 1.34315 4.65685 0 3 0C1.34315 0 0 1.34315 0 3C0 4.65685 1.34315 6 3 6Z" fill="#CC92F1"/><path transform="translate( 589, 855 ) rotate( 630 )" d="M6.34003 0.275664C6.70452 -0.0918881 7.29548 -0.0918881 7.65997 0.275664L13.7266 6.39331C14.0911 6.76086 14.0911 7.35678 13.7266 7.72434C13.3621 8.09189 12.7712 8.09189 12.4067 7.72434L7 2.2722L1.5933 7.72434C1.22881 8.09189 0.637856 8.09189 0.273367 7.72434C-0.0911224 7.35678 -0.0911224 6.76086 0.273367 6.39331L6.34003 0.275664Z" fill="#CC92F1"/></g><g><path fill="none" stroke="#CC92F1" stroke-width="2" stroke-dasharray="0px 0px" d="M 871,832L 886,832Q896,832 896,842L 896,838Q896,848 906,848L 921,848"/><path transform="translate( 873, 829 ) rotate( 450 )" d="M3 6C4.65685 6 6 4.65685 6 3C6 1.34315 4.65685 0 3 0C1.34315 0 0 1.34315 0 3C0 4.65685 1.34315 6 3 6Z" fill="#CC92F1"/><path transform="translate( 923, 841 ) rotate( 450 )" d="M6.34003 0.275664C6.70452 -0.0918881 7.29548 -0.0918881 7.65997 0.275664L13.7266 6.39331C14.0911 6.76086 14.0911 7.35678 13.7266 7.72434C13.3621 8.09189 12.7712 8.09189 12.4067 7.72434L7 2.2722L1.5933 7.72434C1.22881 8.09189 0.637856 8.09189 0.273367 7.72434C-0.0911224 7.35678 -0.0911224 6.76086 0.273367 6.39331L6.34003 0.275664Z" fill="#CC92F1"/></g><g><path fill="none" stroke="#4d9ef6" stroke-width="2" stroke-dasharray="0px 0px" d="M 871,832L 886,832Q896,832 896,842L 896,838Q896,848 906,848L 921,848"/><path transform="translate( 873, 829 ) rotate( 450 )" d="M3 6C4.65685 6 6 4.65685 6 3C6 1.34315 4.65685 0 3 0C1.34315 0 0 1.34315 0 3C0 4.65685 1.34315 6 3 6Z" fill="#4d9ef6"/><path transform="translate( 923, 841 ) rotate( 450 )" d="M6.34003 0.275664C6.70452 -0.0918881 7.29548 -0.0918881 7.65997 0.275664L13.7266 6.39331C14.0911 6.76086 14.0911 7.35678 13.7266 7.72434C13.3621 8.09189 12.7712 8.09189 12.4067 7.72434L7 2.2722L1.5933 7.72434C1.22881 8.09189 0.637856 8.09189 0.273367 7.72434C-0.0911224 7.35678 -0.0911224 6.76086 0.273367 6.39331L6.34003 0.275664Z" fill="#4d9ef6"/></g><g><path fill="none" stroke="#FD6764" stroke-width="2" stroke-dasharray="0px 0px" d="M 756,934.5L 756,960L 756,992L 756,1017"/><path transform="translate( 759, 936.5 ) rotate( 180 )" d="M3 6C4.65685 6 6 4.65685 6 3C6 1.34315 4.65685 0 3 0C1.34315 0 0 1.34315 0 3C0 4.65685 1.34315 6 3 6Z" fill="#FD6764"/><path transform="translate( 763, 1019 ) rotate( 540 )" d="M6.34003 0.275664C6.70452 -0.0918881 7.29548 -0.0918881 7.65997 0.275664L13.7266 6.39331C14.0911 6.76086 14.0911 7.35678 13.7266 7.72434C13.3621 8.09189 12.7712 8.09189 12.4067 7.72434L7 2.2722L1.5933 7.72434C1.22881 8.09189 0.637856 8.09189 0.273367 7.72434C-0.0911224 7.35678 -0.0911224 6.76086 0.273367 6.39331L6.34003 0.275664Z" fill="#FD6764"/></g><g><path fill="none" stroke="#4d9ef6" stroke-width="2" stroke-dasharray="0px 0px" d="M 756,1573L 756,1600L 756,1600L 756,1625"/><path transform="translate( 759, 1575 ) rotate( 180 )" d="M3 6C4.65685 6 6 4.65685 6 3C6 1.34315 4.65685 0 3 0C1.34315 0 0 1.34315 0 3C0 4.65685 1.34315 6 3 6Z" fill="#4d9ef6"/><path transform="translate( 763, 1627 ) rotate( 540 )" d="M6.34003 0.275664C6.70452 -0.0918881 7.29548 -0.0918881 7.65997 0.275664L13.7266 6.39331C14.0911 6.76086 14.0911 7.35678 13.7266 7.72434C13.3621 8.09189 12.7712 8.09189 12.4067 7.72434L7 2.2722L1.5933 7.72434C1.22881 8.09189 0.637856 8.09189 0.273367 7.72434C-0.0911224 7.35678 -0.0911224 6.76086 0.273367 6.39331L6.34003 0.275664Z" fill="#4d9ef6"/></g><g><path fill="none" stroke="#4d9ef6" stroke-width="2" stroke-dasharray="0px 0px" d="M 1036,1093L 1036,1120L 1036,1120L 1036,1143.5"/><path transform="translate( 1039, 1095 ) rotate( 180 )" d="M3 6C4.65685 6 6 4.65685 6 3C6 1.34315 4.65685 0 3 0C1.34315 0 0 1.34315 0 3C0 4.65685 1.34315 6 3 6Z" fill="#4d9ef6"/><path transform="translate( 1043, 1145.5 ) rotate( 540 )" d="M6.34003 0.275664C6.70452 -0.0918881 7.29548 -0.0918881 7.65997 0.275664L13.7266 6.39331C14.0911 6.76086 14.0911 7.35678 13.7266 7.72434C13.3621 8.09189 12.7712 8.09189 12.4067 7.72434L7 2.2722L1.5933 7.72434C1.22881 8.09189 0.637856 8.09189 0.273367 7.72434C-0.0911224 7.35678 -0.0911224 6.76086 0.273367 6.39331L6.34003 0.275664Z" fill="#4d9ef6"/></g><g><path fill="none" stroke="#4d9ef6" stroke-width="2" stroke-dasharray="0px 0px" d="M 643,1696L 616,1696L 616,1696L 591,1696"/><path transform="translate( 641, 1699 ) rotate( 270 )" d="M3 6C4.65685 6 6 4.65685 6 3C6 1.34315 4.65685 0 3 0C1.34315 0 0 1.34315 0 3C0 4.65685 1.34315 6 3 6Z" fill="#4d9ef6"/><path transform="translate( 589, 1703 ) rotate( 630 )" d="M6.34003 0.275664C6.70452 -0.0918881 7.29548 -0.0918881 7.65997 0.275664L13.7266 6.39331C14.0911 6.76086 14.0911 7.35678 13.7266 7.72434C13.3621 8.09189 12.7712 8.09189 12.4067 7.72434L7 2.2722L1.5933 7.72434C1.22881 8.09189 0.637856 8.09189 0.273367 7.72434C-0.0911224 7.35678 -0.0911224 6.76086 0.273367 6.39331L6.34003 0.275664Z" fill="#4d9ef6"/></g><g><path fill="none" stroke="#76E27A" stroke-width="2" stroke-dasharray="0px 0px" d="M 591,576L 616,576L 662,576Q672,576 672,586L 672,582Q672,592 682,592L 697,592"/><path transform="translate( 593, 573 ) rotate( 450 )" d="M3 6C4.65685 6 6 4.65685 6 3C6 1.34315 4.65685 0 3 0C1.34315 0 0 1.34315 0 3C0 4.65685 1.34315 6 3 6Z" fill="#76E27A"/><path transform="translate( 699, 585 ) rotate( 450 )" d="M6.34003 0.275664C6.70452 -0.0918881 7.29548 -0.0918881 7.65997 0.275664L13.7266 6.39331C14.0911 6.76086 14.0911 7.35678 13.7266 7.72434C13.3621 8.09189 12.7712 8.09189 12.4067 7.72434L7 2.2722L1.5933 7.72434C1.22881 8.09189 0.637856 8.09189 0.273367 7.72434C-0.0911224 7.35678 -0.0911224 6.76086 0.273367 6.39331L6.34003 0.275664Z" fill="#76E27A"/></g><g><path fill="none" stroke="#FD6764" stroke-width="2" stroke-dasharray="0px 0px" d="M 361,576L 336,576L 290,576Q280,576 280,586L 280,582Q280,592 270,592L 255,592"/><path transform="translate( 359, 579 ) rotate( 270 )" d="M3 6C4.65685 6 6 4.65685 6 3C6 1.34315 4.65685 0 3 0C1.34315 0 0 1.34315 0 3C0 4.65685 1.34315 6 3 6Z" fill="#FD6764"/><path transform="translate( 253, 599 ) rotate( 630 )" d="M6.34003 0.275664C6.70452 -0.0918881 7.29548 -0.0918881 7.65997 0.275664L13.7266 6.39331C14.0911 6.76086 14.0911 7.35678 13.7266 7.72434C13.3621 8.09189 12.7712 8.09189 12.4067 7.72434L7 2.2722L1.5933 7.72434C1.22881 8.09189 0.637856 8.09189 0.273367 7.72434C-0.0911224 7.35678 -0.0911224 6.76086 0.273367 6.39331L6.34003 0.275664Z" fill="#FD6764"/></g><g><path fill="none" stroke="#4d9ef6" stroke-width="2" stroke-dasharray="0px 0px" d="M 140,645L 140,672L 140,672L 140,697"/><path transform="translate( 143, 647 ) rotate( 180 )" d="M3 6C4.65685 6 6 4.65685 6 3C6 1.34315 4.65685 0 3 0C1.34315 0 0 1.34315 0 3C0 4.65685 1.34315 6 3 6Z" fill="#4d9ef6"/><path transform="translate( 147, 699 ) rotate( 540 )" d="M6.34003 0.275664C6.70452 -0.0918881 7.29548 -0.0918881 7.65997 0.275664L13.7266 6.39331C14.0911 6.76086 14.0911 7.35678 13.7266 7.72434C13.3621 8.09189 12.7712 8.09189 12.4067 7.72434L7 2.2722L1.5933 7.72434C1.22881 8.09189 0.637856 8.09189 0.273367 7.72434C-0.0911224 7.35678 -0.0911224 6.76086 0.273367 6.39331L6.34003 0.275664Z" fill="#4d9ef6"/></g><g><path fill="none" stroke="#4d9ef6" stroke-width="2" stroke-dasharray="0px 0px" d="M 140,837L 140,864L 140,864L 140,889"/><path transform="translate( 143, 839 ) rotate( 180 )" d="M3 6C4.65685 6 6 4.65685 6 3C6 1.34315 4.65685 0 3 0C1.34315 0 0 1.34315 0 3C0 4.65685 1.34315 6 3 6Z" fill="#4d9ef6"/><path transform="translate( 147, 891 ) rotate( 540 )" d="M6.34003 0.275664C6.70452 -0.0918881 7.29548 -0.0918881 7.65997 0.275664L13.7266 6.39331C14.0911 6.76086 14.0911 7.35678 13.7266 7.72434C13.3621 8.09189 12.7712 8.09189 12.4067 7.72434L7 2.2722L1.5933 7.72434C1.22881 8.09189 0.637856 8.09189 0.273367 7.72434C-0.0911224 7.35678 -0.0911224 6.76086 0.273367 6.39331L6.34003 0.275664Z" fill="#4d9ef6"/></g><g><path fill="none" stroke="#4d9ef6" stroke-width="2" stroke-dasharray="0px 0px" d="M 253,960L 270,960Q280,960 280,950L 280,682Q280,672 290,672L 746,672Q756,672 756,682L 756,704L 756,727.5"/><path transform="translate( 255, 957 ) rotate( 450 )" d="M3 6C4.65685 6 6 4.65685 6 3C6 1.34315 4.65685 0 3 0C1.34315 0 0 1.34315 0 3C0 4.65685 1.34315 6 3 6Z" fill="#4d9ef6"/><path transform="translate( 763, 729.5 ) rotate( 540 )" d="M6.34003 0.275664C6.70452 -0.0918881 7.29548 -0.0918881 7.65997 0.275664L13.7266 6.39331C14.0911 6.76086 14.0911 7.35678 13.7266 7.72434C13.3621 8.09189 12.7712 8.09189 12.4067 7.72434L7 2.2722L1.5933 7.72434C1.22881 8.09189 0.637856 8.09189 0.273367 7.72434C-0.0911224 7.35678 -0.0911224 6.76086 0.273367 6.39331L6.34003 0.275664Z" fill="#4d9ef6"/></g><g><path fill="none" stroke="#4d9ef6" stroke-width="2" stroke-dasharray="0px 0px" d="M 756,1157L 756,1184L 756,1184L 756,1209"/><path transform="translate( 759, 1159 ) rotate( 180 )" d="M3 6C4.65685 6 6 4.65685 6 3C6 1.34315 4.65685 0 3 0C1.34315 0 0 1.34315 0 3C0 4.65685 1.34315 6 3 6Z" fill="#4d9ef6"/><path transform="translate( 763, 1211 ) rotate( 540 )" d="M6.34003 0.275664C6.70452 -0.0918881 7.29548 -0.0918881 7.65997 0.275664L13.7266 6.39331C14.0911 6.76086 14.0911 7.35678 13.7266 7.72434C13.3621 8.09189 12.7712 8.09189 12.4067 7.72434L7 2.2722L1.5933 7.72434C1.22881 8.09189 0.637856 8.09189 0.273367 7.72434C-0.0911224 7.35678 -0.0911224 6.76086 0.273367 6.39331L6.34003 0.275664Z" fill="#4d9ef6"/></g><g><path fill="none" stroke="#FD6764" stroke-width="2" stroke-dasharray="0px 0px" d="M 361,1024L 346,1024Q336,1024 336,1014L 336,714Q336,704 346,704L 746,704Q756,704 756,714L 756,727.5"/><path transform="translate( 359, 1027 ) rotate( 270 )" d="M3 6C4.65685 6 6 4.65685 6 3C6 1.34315 4.65685 0 3 0C1.34315 0 0 1.34315 0 3C0 4.65685 1.34315 6 3 6Z" fill="#FD6764"/><path transform="translate( 763, 729.5 ) rotate( 540 )" d="M6.34003 0.275664C6.70452 -0.0918881 7.29548 -0.0918881 7.65997 0.275664L13.7266 6.39331C14.0911 6.76086 14.0911 7.35678 13.7266 7.72434C13.3621 8.09189 12.7712 8.09189 12.4067 7.72434L7 2.2722L1.5933 7.72434C1.22881 8.09189 0.637856 8.09189 0.273367 7.72434C-0.0911224 7.35678 -0.0911224 6.76086 0.273367 6.39331L6.34003 0.275664Z" fill="#FD6764"/><g transform="translate( 336, 826.6377473363775 )"><circle r="13" cx="0" cy="0" fill="#FD6764"/><g transform="translate( -12, -12 )"><svg width="24" height="24" fill="none" viewBox="0 0 24 24" id="svgSkb7tcer7398" xmlns="http://www.w3.org/2000/svg">
        <g>
            <path d="M12 21a9 9 0 1 0 0-18 9 9 0 0 0 0 18z" fill="#FD6764"/>
            <path d="M12 10.546L9.455 8 8 9.455 10.546 12 8 14.546 9.455 16 12 13.454 14.546 16 16 14.546 13.454 12 16 9.455 14.546 8 12 10.546z" fill="#fff"/>
        </g>
    <desc>Created with Snap</desc><defs/></svg></g></g></g><g><path fill="none" stroke="#76E27A" stroke-width="2" stroke-dasharray="0px 0px" d="M 476,1094.5L 476,1120L 476,1478Q476,1488 486,1488L 616,1488L 641,1488"/><path transform="translate( 479, 1096.5 ) rotate( 180 )" d="M3 6C4.65685 6 6 4.65685 6 3C6 1.34315 4.65685 0 3 0C1.34315 0 0 1.34315 0 3C0 4.65685 1.34315 6 3 6Z" fill="#76E27A"/><path transform="translate( 643, 1481 ) rotate( 450 )" d="M6.34003 0.275664C6.70452 -0.0918881 7.29548 -0.0918881 7.65997 0.275664L13.7266 6.39331C14.0911 6.76086 14.0911 7.35678 13.7266 7.72434C13.3621 8.09189 12.7712 8.09189 12.4067 7.72434L7 2.2722L1.5933 7.72434C1.22881 8.09189 0.637856 8.09189 0.273367 7.72434C-0.0911224 7.35678 -0.0911224 6.76086 0.273367 6.39331L6.34003 0.275664Z" fill="#76E27A"/></g><g><path fill="none" stroke="#76E27A" stroke-width="2" stroke-dasharray="0px 0px" d="M 1036,1286.5L 1036,1312L 1036,1478Q1036,1488 1026,1488L 896,1488L 871,1488"/><path transform="translate( 1039, 1288.5 ) rotate( 180 )" d="M3 6C4.65685 6 6 4.65685 6 3C6 1.34315 4.65685 0 3 0C1.34315 0 0 1.34315 0 3C0 4.65685 1.34315 6 3 6Z" fill="#76E27A"/><path transform="translate( 869, 1495 ) rotate( 630 )" d="M6.34003 0.275664C6.70452 -0.0918881 7.29548 -0.0918881 7.65997 0.275664L13.7266 6.39331C14.0911 6.76086 14.0911 7.35678 13.7266 7.72434C13.3621 8.09189 12.7712 8.09189 12.4067 7.72434L7 2.2722L1.5933 7.72434C1.22881 8.09189 0.637856 8.09189 0.273367 7.72434C-0.0911224 7.35678 -0.0911224 6.76086 0.273367 6.39331L6.34003 0.275664Z" fill="#76E27A"/></g><g><path fill="none" stroke="#FD6764" stroke-width="2" stroke-dasharray="0px 0px" d="M 1151,1216L 1166,1216Q1176,1216 1176,1226L 1176,1590Q1176,1600 1166,1600L 1046,1600Q1036,1600 1036,1610L 1036,1625"/><path transform="translate( 1153, 1213 ) rotate( 450 )" d="M3 6C4.65685 6 6 4.65685 6 3C6 1.34315 4.65685 0 3 0C1.34315 0 0 1.34315 0 3C0 4.65685 1.34315 6 3 6Z" fill="#FD6764"/><path transform="translate( 1043, 1627 ) rotate( 540 )" d="M6.34003 0.275664C6.70452 -0.0918881 7.29548 -0.0918881 7.65997 0.275664L13.7266 6.39331C14.0911 6.76086 14.0911 7.35678 13.7266 7.72434C13.3621 8.09189 12.7712 8.09189 12.4067 7.72434L7 2.2722L1.5933 7.72434C1.22881 8.09189 0.637856 8.09189 0.273367 7.72434C-0.0911224 7.35678 -0.0911224 6.76086 0.273367 6.39331L6.34003 0.275664Z" fill="#FD6764"/></g></g><g><g transform="translate( 756, 976 )"><circle r="13" cx="0" cy="0" fill="#FD6764"/><g transform="translate( -12, -12 )"><svg width="24" height="24" fill="none" viewBox="0 0 24 24" id="svgSkb7tcer738q" xmlns="http://www.w3.org/2000/svg">
        <g>
            <path d="M12 21a9 9 0 1 0 0-18 9 9 0 0 0 0 18z" fill="#FD6764"/>
            <path d="M12 10.546L9.455 8 8 9.455 10.546 12 8 14.546 9.455 16 12 13.454 14.546 16 16 14.546 13.454 12 16 9.455 14.546 8 12 10.546z" fill="#fff"/>
        </g>
    <desc>Created with Snap</desc><defs/></svg></g></g><g transform="translate( 672, 576 )"><circle r="13" cx="0" cy="0" fill="#76E27A"/><g transform="translate( -12, -12 )"><svg width="24" height="24" fill="none" viewBox="0 0 24 24" id="svgSkb7tcer738w" xmlns="http://www.w3.org/2000/svg">
        <g>
            <path d="M12 21a9 9 0 1 0 0-18 9 9 0 0 0 0 18z" fill="#55D45B"/>
            <path fill-rule="evenodd" clip-rule="evenodd" d="M17.707 9.707L11.5 15.914l-4.207-4.207 1.414-1.414 2.793 2.793 4.793-4.793 1.414 1.414z" fill="#fff"/>
        </g>
    <desc>Created with Snap</desc><defs/></svg></g></g><g transform="translate( 280, 576 )"><circle r="13" cx="0" cy="0" fill="#FD6764"/><g transform="translate( -12, -12 )"><svg width="24" height="24" fill="none" viewBox="0 0 24 24" id="svgSkb7tcer7392" xmlns="http://www.w3.org/2000/svg">
        <g>
            <path d="M12 21a9 9 0 1 0 0-18 9 9 0 0 0 0 18z" fill="#FD6764"/>
            <path d="M12 10.546L9.455 8 8 9.455 10.546 12 8 14.546 9.455 16 12 13.454 14.546 16 16 14.546 13.454 12 16 9.455 14.546 8 12 10.546z" fill="#fff"/>
        </g>
    <desc>Created with Snap</desc><defs/></svg></g></g><g transform="translate( 476, 1488 )"><circle r="13" cx="0" cy="0" fill="#76E27A"/><g transform="translate( -12, -12 )"><svg width="24" height="24" fill="none" viewBox="0 0 24 24" id="svgSkb7tcer739e" xmlns="http://www.w3.org/2000/svg">
        <g>
            <path d="M12 21a9 9 0 1 0 0-18 9 9 0 0 0 0 18z" fill="#55D45B"/>
            <path fill-rule="evenodd" clip-rule="evenodd" d="M17.707 9.707L11.5 15.914l-4.207-4.207 1.414-1.414 2.793 2.793 4.793-4.793 1.414 1.414z" fill="#fff"/>
        </g>
    <desc>Created with Snap</desc><defs/></svg></g></g><g transform="translate( 1036, 1488 )"><circle r="13" cx="0" cy="0" fill="#76E27A"/><g transform="translate( -12, -12 )"><svg width="24" height="24" fill="none" viewBox="0 0 24 24" id="svgSkb7tcer739k" xmlns="http://www.w3.org/2000/svg">
        <g>
            <path d="M12 21a9 9 0 1 0 0-18 9 9 0 0 0 0 18z" fill="#55D45B"/>
            <path fill-rule="evenodd" clip-rule="evenodd" d="M17.707 9.707L11.5 15.914l-4.207-4.207 1.414-1.414 2.793 2.793 4.793-4.793 1.414 1.414z" fill="#fff"/>
        </g>
    <desc>Created with Snap</desc><defs/></svg></g></g><g transform="translate( 1176, 1600 )"><circle r="13" cx="0" cy="0" fill="#FD6764"/><g transform="translate( -12, -12 )"><svg width="24" height="24" fill="none" viewBox="0 0 24 24" id="svgSkb7tcer739q" xmlns="http://www.w3.org/2000/svg">
        <g>
            <path d="M12 21a9 9 0 1 0 0-18 9 9 0 0 0 0 18z" fill="#FD6764"/>
            <path d="M12 10.546L9.455 8 8 9.455 10.546 12 8 14.546 9.455 16 12 13.454 14.546 16 16 14.546 13.454 12 16 9.455 14.546 8 12 10.546z" fill="#fff"/>
        </g>
    <desc>Created with Snap</desc><defs/></svg></g></g></g></g></g></svg>